HIERARCHY
ROOT Hips
{
	OFFSET 0.000000 0.000000 0.000000
	CHANNELS 6 Xposition Yposition Zposition Xrotation Yrotation Zrotation
	JOINT Spine
	{
		OFFSET 0.000000 0.053497 0.080245
		CHANNELS 3 Xrotation Yrotation Zrotation
		JOINT Spine1
		{
			OFFSET 0.000000 0.018579 0.105368
			CHANNELS 3 Xrotation Yrotation Zrotation
			JOINT Spine2
			{
				OFFSET 0.000000 0.009325 0.106586
				CHANNELS 3 Xrotation Yrotation Zrotation
				JOINT Spine3
				{
					OFFSET 0.000000 0.000000 0.106993
					CHANNELS 3 Xrotation Yrotation Zrotation
					JOINT Neck
					{
						OFFSET 0.000000 -0.040122 0.280858
						CHANNELS 3 Xrotation Yrotation Zrotation
						JOINT Head
						{
							OFFSET 0.000000 -0.025546 0.144881
							CHANNELS 3 Xrotation Yrotation Zrotation
							End Site
							{
								OFFSET 0.000000 0.000000 0.000000
							}
						}
					}
					JOINT RightShoulder
					{
						OFFSET -0.032541 -0.054234 0.175720
						CHANNELS 3 Xrotation Yrotation Zrotation
						JOINT RightArm
						{
							OFFSET -0.161619 0.000000 0.000000
							CHANNELS 3 Xrotation Yrotation Zrotation
							JOINT RightForeArm
							{
								OFFSET -0.257104 0.000000 0.000000
								CHANNELS 3 Xrotation Yrotation Zrotation
								JOINT RightHand
								{
									OFFSET -0.273485 0.000000 0.000000
									CHANNELS 3 Xrotation Yrotation Zrotation
									JOINT RightHandEnd
									{
										OFFSET -0.070844 0.000000 0.000000
										CHANNELS 3 Xrotation Yrotation Zrotation
										End Site
										{
											OFFSET 0.000000 0.000000 0.000000
										}
									}
									JOINT RightHandThumb1
									{
										OFFSET -0.028338 -0.047230 -0.018892
										CHANNELS 3 Xrotation Yrotation Zrotation
										End Site
										{
											OFFSET 0.000000 0.000000 0.000000
										}
									}
								}
							}
						}
					}
					JOINT LeftShoulder
					{
						OFFSET 0.032541 -0.054234 0.175720
						CHANNELS 3 Xrotation Yrotation Zrotation
						JOINT LeftArm
						{
							OFFSET 0.161619 0.000000 0.000000
							CHANNELS 3 Xrotation Yrotation Zrotation
							JOINT LeftForeArm
							{
								OFFSET 0.257104 0.000000 0.000000
								CHANNELS 3 Xrotation Yrotation Zrotation
								JOINT LeftHand
								{
									OFFSET 0.273485 0.000000 0.000000
									CHANNELS 3 Xrotation Yrotation Zrotation
									JOINT LeftHandEnd
									{
										OFFSET 0.070844 0.000000 0.000000
										CHANNELS 3 Xrotation Yrotation Zrotation
										End Site
										{
											OFFSET 0.000000 0.000000 0.000000
										}
									}
									JOINT LeftHandThumb1
									{
										OFFSET 0.028338 -0.047230 -0.018892
										CHANNELS 3 Xrotation Yrotation Zrotation
										End Site
										{
											OFFSET 0.000000 0.000000 0.000000
										}
									}
								}
							}
						}
					}
				}
			}
		}
	}
	JOINT RightUpLeg
	{
		OFFSET -0.096537 0.000000 -0.028202
		CHANNELS 3 Xrotation Yrotation Zrotation
		JOINT RightLeg
		{
			OFFSET 0.000000 0.000000 -0.431842
			CHANNELS 3 Xrotation Yrotation Zrotation
			JOINT RightFoot
			{
				OFFSET 0.000000 0.000000 -0.456398
				CHANNELS 3 Xrotation Yrotation Zrotation
				JOINT RightToeBase
				{
					OFFSET 0.000000 -0.128905 -0.046918
					CHANNELS 3 Xrotation Yrotation Zrotation
					End Site
					{
						OFFSET 0.000000 0.000000 0.000000
					}
				}
			}
		}
	}
	JOINT LeftUpLeg
	{
		OFFSET 0.096537 0.000000 -0.028202
		CHANNELS 3 Xrotation Yrotation Zrotation
		JOINT LeftLeg
		{
			OFFSET 0.000000 0.000000 -0.431842
			CHANNELS 3 Xrotation Yrotation Zrotation
			JOINT LeftFoot
			{
				OFFSET 0.000000 0.000000 -0.456398
				CHANNELS 3 Xrotation Yrotation Zrotation
				JOINT LeftToeBase
				{
					OFFSET 0.000000 -0.128905 -0.046918
					CHANNELS 3 Xrotation Yrotation Zrotation
					End Site
					{
						OFFSET 0.000000 0.000000 0.000000
					}
				}
			}
		}
	}
}
MOTION
Frames: 13
Frame Time: 0.033333
0.628508 -1.935688 0.936948 -0.187400 -0.387100 -86.550200 -0.147600 1.509300 -0.591800 -0.415800 0.842600 -0.187900 3.909900 -1.394900 -4.885100 1.841000 0.821900 -1.309800 1.047300 5.320200 -12.341600 -6.774600 -3.812200 -15.310700 10.630000 -9.811900 7.754500 31.700000 -57.575500 33.172600 0.000000 0.000000 22.275100 -9.410900 11.285300 4.400400 0.000000 0.000000 0.000000 0.000000 0.000000 0.000000 12.445600 7.848000 -7.917400 23.144400 62.134300 -29.594100 0.000000 0.000000 -18.194000 -13.018100 -13.476900 5.000800 0.000000 0.000000 0.000000 0.000000 0.000000 0.000000 -18.875300 -6.663600 -19.980900 21.522000 0.000000 0.000000 -4.786300 13.851700 -17.256900 3.425700 0.000000 0.000000 -0.730600 0.389700 18.814300 44.262300 0.000000 0.000000 -3.978600 26.192000 22.906000 -24.218100 0.000000 0.000000 
0.605081 -1.943014 0.938378 0.650600 -0.199900 -89.095100 -0.333700 0.371800 -0.471200 -0.514000 0.699100 -0.191800 3.866900 -1.546800 -4.666800 1.824200 0.736500 -1.188400 1.224100 5.381000 -11.873100 -6.702900 -3.485600 -14.885100 10.546400 -9.759500 7.553800 30.628800 -57.795300 32.307000 0.000000 0.000000 23.660300 -9.376100 11.782900 4.549600 0.000000 0.000000 0.000000 0.000000 0.000000 0.000000 12.755500 7.613600 -7.574500 26.636700 64.061700 -32.906900 0.000000 0.000000 -15.957900 -11.962000 -10.305900 5.804600 0.000000 0.000000 0.000000 0.000000 0.000000 0.000000 -16.810000 -7.600900 -19.995000 21.137700 0.000000 0.000000 -6.568300 13.892300 -15.132500 3.911600 0.000000 0.000000 -4.228100 -2.477300 19.387100 51.447600 0.000000 0.000000 3.774800 22.622900 18.921900 -20.140600 0.000000 0.000000 
0.583943 -1.950352 0.940006 1.276800 0.008000 -91.722600 -0.266900 -0.536300 -0.321300 -0.510400 0.527800 -0.194500 3.795000 -1.580300 -4.412000 1.804000 0.691500 -1.112300 1.162400 5.389800 -11.438300 -6.803800 -3.149500 -14.489200 10.707100 -9.819600 7.508000 29.563200 -57.585200 31.692900 0.000000 0.000000 25.295900 -9.280700 12.618700 4.723500 0.000000 0.000000 0.000000 0.000000 0.000000 0.000000 12.993800 7.815400 -7.325900 30.057500 64.444300 -36.077600 0.000000 0.000000 -14.451200 -11.107800 -6.401600 6.717000 0.000000 0.000000 0.000000 0.000000 0.000000 0.000000 -14.923600 -8.164000 -19.376700 20.974800 0.000000 0.000000 -8.134200 13.336900 -13.015000 3.884800 0.000000 0.000000 -7.671500 -4.754700 18.462500 57.041900 0.000000 0.000000 2.213800 19.734400 20.970900 -13.266400 0.000000 0.000000 
0.564060 -1.958304 0.942508 1.471800 0.354800 -94.800400 -0.035000 -1.088200 -0.171600 -0.396000 0.351600 -0.176700 3.768900 -1.385300 -3.884700 1.767800 0.671600 -1.034300 1.050500 5.279100 -10.972200 -6.990400 -2.747400 -14.017000 10.964100 -9.567400 7.620800 29.489600 -57.148700 32.294300 0.000000 0.000000 26.709500 -8.659900 13.673900 4.717400 0.000000 0.000000 0.000000 0.000000 0.000000 0.000000 13.173100 8.066000 -7.153600 31.669400 64.578800 -37.460600 0.000000 0.000000 -13.688500 -10.748000 -3.570300 7.270700 0.000000 0.000000 0.000000 0.000000 0.000000 0.000000 -13.102100 -8.295400 -17.342000 20.974800 0.000000 0.000000 -9.035900 12.366300 -11.756900 3.652800 0.000000 0.000000 -10.427500 -6.004600 16.609300 59.625500 0.000000 0.000000 -4.071000 17.569600 27.565000 -8.260200 0.000000 0.000000 
0.544170 -1.966438 0.945868 1.185300 0.863100 -98.263000 0.182500 -1.216500 -0.056200 -0.267200 0.279000 -0.131400 3.870000 -0.979400 -3.195900 1.748800 0.656700 -0.956700 1.025000 5.061600 -10.436800 -7.069900 -2.425200 -13.376400 11.036000 -8.940400 7.827700 30.539300 -56.838300 33.955600 0.000000 0.000000 27.867100 -7.809500 14.476300 4.578600 0.000000 0.000000 0.000000 0.000000 0.000000 0.000000 13.308800 8.049800 -6.968700 30.418000 65.416700 -36.043400 0.000000 0.000000 -13.572300 -10.548800 -3.071900 7.320700 0.000000 0.000000 0.000000 0.000000 0.000000 0.000000 -11.050900 -7.842900 -15.009900 20.701600 0.000000 0.000000 -9.728100 11.657900 -10.566700 3.730700 0.000000 0.000000 -12.214000 -6.369300 14.352700 58.934400 0.000000 0.000000 -8.778500 14.840400 33.651400 -6.647500 0.000000 0.000000 
0.524759 -1.974025 0.949251 0.864000 1.173200 -101.794000 0.176800 -1.274900 0.041100 -0.257200 0.245700 -0.085100 4.047100 -0.511000 -2.583200 1.764500 0.653300 -0.925100 1.006800 4.961500 -9.777000 -6.948300 -2.318100 -12.677200 10.958600 -8.320600 8.097700 32.048300 -56.411500 35.870900 0.000000 0.000000 28.994700 -7.327500 14.771600 4.571300 0.000000 0.000000 0.000000 0.000000 0.000000 0.000000 13.349700 8.115900 -6.713000 26.458300 66.283700 -31.843000 0.000000 0.000000 -13.981000 -10.423300 -4.193200 7.005200 0.000000 0.000000 0.000000 0.000000 0.000000 0.000000 -9.105000 -7.165100 -13.190000 20.027700 0.000000 0.000000 -10.446300 11.126600 -8.724000 3.818600 0.000000 0.000000 -13.579200 -6.571300 11.655400 56.062300 0.000000 0.000000 -11.172200 12.416400 36.556400 -6.621400 0.000000 0.000000 
0.506712 -1.981134 0.952109 0.892400 1.063600 -105.282600 0.002500 -1.612400 0.151800 -0.358300 0.080300 -0.058700 4.193200 -0.090100 -2.003900 1.784200 0.672900 -0.942900 0.880300 5.143300 -8.990900 -6.685700 -2.339200 -12.143000 10.966300 -7.989000 8.384900 33.262000 -55.510100 37.335000 0.000000 0.000000 30.233000 -7.247000 14.824000 4.767200 0.000000 0.000000 0.000000 0.000000 0.000000 0.000000 13.210800 8.675200 -6.460800 21.382700 66.122200 -26.349800 0.000000 0.000000 -14.739900 -10.600500 -5.702500 6.581500 0.000000 0.000000 0.000000 0.000000 0.000000 0.000000 -7.527600 -6.749900 -11.629500 19.030900 0.000000 0.000000 -10.904200 10.365100 -6.525100 3.635000 0.000000 0.000000 -14.895000 -7.092500 8.251000 51.888800 0.000000 0.000000 -13.000800 11.174000 37.072800 -5.767300 0.000000 0.000000 
0.489684 -1.988111 0.954311 1.239800 0.750600 -108.795200 -0.108600 -2.177400 0.278200 -0.433900 -0.232600 -0.043900 4.251200 0.249500 -1.309100 1.768800 0.692400 -0.942100 0.650400 5.506700 -8.173500 -6.413300 -2.313100 -11.828600 11.117200 -7.799300 8.622200 34.076000 -54.274000 38.297100 0.000000 0.000000 31.454800 -7.194400 14.941600 5.014900 0.000000 0.000000 0.000000 0.000000 0.000000 0.000000 12.891400 9.494900 -6.318800 16.446900 65.158500 -20.901500 0.000000 0.000000 -15.713900 -10.967700 -7.511300 6.192900 0.000000 0.000000 0.000000 0.000000 0.000000 0.000000 -6.066900 -6.597600 -10.130500 17.792900 0.000000 0.000000 -11.113400 9.398100 -4.415400 3.543800 0.000000 0.000000 -15.875800 -7.880600 4.026400 46.780300 0.000000 0.000000 -14.316200 11.251800 36.304100 -4.774200 0.000000 0.000000 
0.472933 -1.994746 0.955576 1.753400 0.423300 -112.309100 -0.077100 -2.756000 0.403400 -0.412200 -0.546000 -0.028000 4.220300 0.452200 -0.600500 1.719500 0.667600 -0.854700 0.338500 5.844400 -7.449600 -6.204100 -2.227300 -11.531900 11.275200 -7.504200 8.801200 34.875200 -53.029200 39.182700 0.000000 0.000000 32.320000 -7.074700 15.045300 5.234400 0.000000 0.000000 0.000000 0.000000 0.000000 0.000000 12.537400 10.045400 -6.295100 11.271000 64.252300 -15.322100 0.000000 0.000000 -16.830100 -11.316300 -9.978000 5.746500 0.000000 0.000000 0.000000 0.000000 0.000000 0.000000 -4.600000 -6.497600 -8.879100 16.567700 0.000000 0.000000 -11.461900 8.391900 -2.370100 3.798200 0.000000 0.000000 -16.302300 -8.953800 -0.688500 41.255700 0.000000 0.000000 -14.891200 12.465500 33.780500 -4.582400 0.000000 0.000000 
0.456499 -2.000712 0.955698 2.380800 -0.037000 -115.716500 -0.006900 -3.268400 0.511400 -0.346100 -0.729800 -0.009400 4.136700 0.432300 -0.137300 1.659800 0.570300 -0.680900 -0.101700 6.008600 -6.840200 -6.015500 -2.177000 -11.028900 11.286800 -7.125600 9.027300 35.806600 -51.863400 40.155000 0.000000 0.000000 32.545700 -7.101000 14.857100 5.452700 0.000000 0.000000 0.000000 0.000000 0.000000 0.000000 12.283500 10.210700 -6.331600 5.715900 63.510100 -9.517800 0.000000 0.000000 -18.043800 -12.044200 -12.636400 5.143800 0.000000 0.000000 0.000000 0.000000 0.000000 0.000000 -3.442100 -6.469300 -7.679500 15.740700 0.000000 0.000000 -11.987100 7.342000 -0.429300 4.072200 0.000000 0.000000 -16.494700 -10.635200 -4.953400 35.903800 0.000000 0.000000 -14.727600 14.699000 29.069300 -3.659100 0.000000 0.000000 
0.440436 -2.006120 0.954888 3.111700 -0.683800 -118.979900 0.069100 -3.728400 0.592300 -0.275100 -0.764700 -0.001400 4.034200 0.201600 0.030300 1.605700 0.419000 -0.472200 -0.620000 5.846200 -6.277500 -5.820700 -2.103800 -10.278000 11.148200 -6.835800 9.329200 36.619900 -50.804600 41.023600 0.000000 0.000000 32.127200 -7.422500 14.364300 5.594300 0.000000 0.000000 0.000000 0.000000 0.000000 0.000000 12.173100 10.173200 -6.418900 1.068800 62.515500 -4.619500 0.000000 0.000000 -19.279000 -13.744400 -14.631100 4.454700 0.000000 0.000000 0.000000 0.000000 0.000000 0.000000 -2.721800 -6.605300 -6.041600 15.456900 0.000000 0.000000 -12.429900 6.290900 1.086100 4.069100 0.000000 0.000000 -16.677300 -13.037400 -7.415500 30.921600 0.000000 0.000000 -13.224300 17.506900 23.070400 -1.547700 0.000000 0.000000 
0.424231 -2.011357 0.953371 3.878100 -1.404900 -122.095400 0.146500 -4.150900 0.646300 -0.186200 -0.658000 -0.003500 3.944100 -0.137300 0.040400 1.563200 0.253300 -0.281800 -1.047600 5.276500 -5.722100 -5.686300 -1.863500 -9.397100 10.965100 -6.693300 9.556100 36.980100 -50.121800 41.538600 0.000000 0.000000 31.323400 -7.957000 13.877300 5.501300 0.000000 0.000000 0.000000 0.000000 0.000000 0.000000 12.134300 10.032500 -6.625800 -1.604500 61.168200 -1.501000 0.000000 0.000000 -20.429900 -16.055600 -15.711700 3.875600 0.000000 0.000000 0.000000 0.000000 0.000000 0.000000 -2.264300 -6.804300 -4.024400 15.612500 0.000000 0.000000 -12.849800 5.312600 2.125300 3.909500 0.000000 0.000000 -16.723800 -15.780500 -7.375300 26.297000 0.000000 0.000000 -10.231900 20.269200 16.387300 -0.432500 0.000000 0.000000 
0.407248 -2.016831 0.951293 4.599000 -2.054200 -124.940200 0.244900 -4.509600 0.658300 -0.088300 -0.460600 -0.010900 3.891700 -0.467800 -0.023500 1.540400 0.111100 -0.146500 -1.316300 4.461100 -5.232500 -5.677300 -1.524700 -8.535200 10.823500 -6.697400 9.581400 36.658100 -50.096900 41.431100 0.000000 0.000000 30.451300 -8.544100 13.690500 5.179400 0.000000 0.000000 0.000000 0.000000 0.000000 0.000000 12.132800 9.796900 -6.976200 -2.525800 59.626000 -0.088700 0.000000 0.000000 -21.221000 -17.882000 -16.175100 3.389000 0.000000 0.000000 0.000000 0.000000 0.000000 0.000000 -1.844800 -6.849900 -2.130600 16.014600 0.000000 0.000000 -13.483400 4.332100 2.955400 3.781800 0.000000 0.000000 -16.516200 -18.255000 -5.754700 22.093800 0.000000 0.000000 -6.403100 22.977500 8.829800 -1.413700 0.000000 0.000000 
